<?xml version="1.0" standalone="no"?>
<!DOCTYPE svg PUBLIC "-//W3C//DTD SVG 20010904//EN"
 "http://www.w3.org/TR/2001/REC-SVG-20010904/DTD/svg10.dtd">
<svg version="1.0" xmlns="http://www.w3.org/2000/svg"
 width="1287.000000pt" height="422.000000pt" viewBox="0 0 1287.000000 422.000000"
 preserveAspectRatio="xMidYMid meet">

<g transform="translate(0.000000,422.000000) scale(0.100000,-0.100000)"
fill="#000000" stroke="none">
<path d="M0 2110 l0 -2110 6435 0 6435 0 0 2110 0 2110 -6435 0 -6435 0 0
-2110z m7619 1754 c173 -242 348 -593 410 -820 66 -242 91 -478 91 -840 0
-432 -47 -749 -150 -1008 -71 -179 -224 -462 -338 -624 l-65 -92 -144 0 -145
0 29 38 c128 167 311 582 382 867 130 527 116 1275 -34 1771 -62 201 -226 562
-325 712 l-48 72 141 0 142 0 54 -76z m-5969 -267 c185 -50 298 -115 431 -247
78 -78 102 -110 137 -180 46 -95 70 -175 79 -267 l6 -63 -171 0 -171 0 -6 38
c-28 164 -129 298 -280 373 -102 50 -197 69 -340 69 -147 0 -248 -20 -349 -69
-186 -91 -264 -211 -254 -396 5 -100 37 -172 105 -240 102 -103 198 -138 618
-231 258 -56 397 -100 527 -166 173 -88 289 -219 341 -383 30 -96 32 -336 3
-435 -93 -316 -357 -524 -741 -585 -129 -21 -359 -21 -494 0 -394 60 -675 286
-761 611 -11 43 -20 95 -20 116 l0 38 168 0 168 0 17 -70 c48 -183 214 -323
452 -381 128 -31 335 -31 458 -1 309 76 476 296 413 542 -31 121 -98 198 -235
269 -99 51 -156 68 -460 136 -351 78 -497 131 -637 231 -131 92 -225 230 -260
379 -21 92 -21 259 0 349 50 211 206 388 438 495 171 80 289 101 543 96 155
-2 193 -6 275 -28z m1593 -94 c19 -49 65 -160 102 -248 62 -149 92 -224 223
-540 27 -66 82 -199 122 -295 40 -96 95 -229 122 -295 28 -66 66 -158 85 -205
19 -47 45 -110 58 -140 47 -114 94 -228 135 -325 23 -55 46 -112 52 -127 19
-53 23 -48 113 172 45 110 465 1126 562 1360 31 74 74 178 95 230 21 52 48
115 58 140 11 25 48 115 83 200 l64 155 199 0 199 0 0 -1370 0 -1370 -157 -3
-158 -3 0 1055 c0 580 -4 1057 -9 1060 -4 3 -31 -50 -59 -117 -263 -631 -371
-890 -682 -1635 l-144 -343 -145 3 -146 3 -66 160 c-36 88 -209 502 -384 920
-175 418 -340 814 -367 880 -27 66 -54 124 -59 129 -5 6 -9 -401 -9 -1052 l0
-1062 -160 0 -160 0 0 1375 0 1375 199 0 198 0 36 -87z m5777 -1133 l0 -1220
665 0 665 0 0 -155 0 -155 -835 0 -835 0 0 1375 0 1375 170 0 170 0 0 -1220z
m3460 1065 l0 -155 -680 0 -680 0 0 -440 0 -440 645 0 645 0 0 -155 0 -155
-645 0 -645 0 0 -470 0 -470 680 0 680 0 0 -155 0 -155 -850 0 -850 0 0 1368
c0 753 3 1372 7 1375 3 4 386 7 850 7 l843 0 0 -155z m-5725 -484 c160 -72
176 -298 27 -392 -116 -74 -262 -29 -327 100 -28 55 -18 158 21 213 61 88 184
123 279 79z m-1 -1455 c91 -38 149 -153 127 -252 -46 -206 -334 -240 -422 -49
-36 78 -19 187 39 249 57 61 177 85 256 52z"/>
</g>
</svg>
